<svg width="44" height="43" viewBox="0 0 44 43" fill="none" xmlns="http://www.w3.org/2000/svg">
<path d="M28.3316 2.55263C31.5558 2.91082 34.4573 4.47067 36.7527 6.76315C39.048 9.05563 40.6009 11.9604 40.9632 15.1842M27.279 9.92104C28.831 10.2238 30.3714 10.9082 31.4895 12.0263C32.6076 13.1444 33.292 14.6849 33.5948 16.2368M14.0169 29.4979C-0.505182 14.9741 1.55983 8.32346 3.09071 6.18033C3.28736 5.83393 8.13475 -1.42236 13.3308 2.83488C26.2281 13.4567 10.4369 13.0789 20.7304 22.7869C31.0238 32.4949 30.0609 17.2894 40.6809 30.184C44.9384 35.3821 37.6817 40.2292 37.3375 40.4237C35.1944 41.9568 28.5411 44.0216 14.0169 29.4979Z" stroke="black" stroke-width="3" stroke-linecap="round" stroke-linejoin="round"/>
</svg>
