<svg width="44" height="41" viewBox="0 0 44 41" fill="none" xmlns="http://www.w3.org/2000/svg">
<path d="M43.1537 1.04988C42.4037 0.413881 41.2257 0.322881 40.0077 0.811881H40.0057C38.7247 1.32588 3.74468 16.3299 2.32068 16.9429C2.06168 17.0329 -0.200322 17.8769 0.032678 19.7569C0.240678 21.4519 2.05868 22.1539 2.28068 22.2349L11.1737 25.2799C11.7637 27.2439 13.9387 34.4899 14.4197 36.0379C14.7197 37.0029 15.2087 38.2709 16.0657 38.5319C16.8177 38.8219 17.5657 38.5569 18.0497 38.1769L23.4867 33.1339L32.2637 39.9789L32.4727 40.1039C33.0687 40.3679 33.6397 40.4999 34.1847 40.4999C34.6057 40.4999 35.0097 40.4209 35.3957 40.2629C36.7107 39.7229 37.2367 38.4699 37.2917 38.3279L43.8477 4.25088C44.2477 2.43088 43.6917 1.50488 43.1537 1.04988ZM19.0167 26.4979L16.0167 34.4979L13.0167 24.4979L36.0167 7.49788L19.0167 26.4979Z" fill="black"/>
</svg>
